<?xml version="1.0" standalone="no"?>
<!DOCTYPE svg PUBLIC "-//W3C//DTD SVG 20010904//EN"
 "http://www.w3.org/TR/2001/REC-SVG-20010904/DTD/svg10.dtd">
<svg version="1.0" xmlns="http://www.w3.org/2000/svg"
 width="200.000000pt" height="200.000000pt" viewBox="0 0 200.000000 200.000000"
 preserveAspectRatio="xMidYMid meet">
<metadata>
Created by potrace 1.10, written by Peter Selinger 2001-2011
</metadata>
<g transform="translate(0.000000,200.000000) scale(0.100000,-0.100000)"
fill="#000000" stroke="none">
<path d="M643 1293 c-13 -2 -23 -11 -23 -19 0 -10 13 -14 45 -14 25 0 45 -2
45 -4 0 -3 121 -354 136 -396 3 -8 34 76 68 188 35 111 65 205 68 208 3 3 80
6 172 7 l166 2 31 -31 c57 -57 50 -166 -13 -204 l-28 -17 25 -11 c29 -14 64
-82 65 -126 0 -43 -35 -109 -69 -129 -25 -14 -56 -17 -205 -17 -107 0 -176 4
-176 10 0 5 7 7 15 4 13 -5 15 24 15 227 l-1 234 -64 -205 c-36 -113 -68 -218
-71 -233 -4 -15 -11 -26 -16 -25 -5 2 -24 46 -43 98 -18 52 -56 158 -84 235
l-50 140 0 -239 c-1 -213 1 -238 15 -232 9 3 21 6 27 6 8 0 8 3 -1 8 -8 6 -13
44 -15 124 -2 108 -1 116 15 102 16 -15 33 -61 29 -78 -1 -5 6 -17 15 -27 9
-11 14 -19 10 -19 -4 0 -1 -10 6 -22 6 -13 13 -31 15 -42 2 -10 10 -31 19 -46
14 -22 23 -27 53 -25 23 1 35 7 33 15 -5 21 9 51 20 44 7 -5 8 -2 3 5 -8 14
13 129 27 148 6 7 6 18 2 25 -6 10 -5 11 7 1 12 -9 16 -36 18 -99 1 -48 4 -92
8 -97 3 -6 1 -7 -4 -4 -6 4 -13 -2 -16 -13 -4 -15 2 -24 24 -35 38 -20 360
-11 394 11 12 8 25 11 30 7 4 -5 5 -3 2 3 -4 6 2 21 13 34 36 42 39 152 5 204
-18 27 -18 30 -1 78 10 27 16 71 15 97 -1 26 1 52 5 59 5 8 2 10 -10 5 -11 -4
-15 -2 -11 4 4 6 0 16 -8 23 -8 7 -12 16 -9 21 3 5 -2 6 -10 3 -9 -3 -16 -1
-16 6 0 6 -4 9 -9 5 -5 -3 -12 -1 -16 5 -4 6 -73 10 -179 10 -166 0 -173 -1
-193 -22 -20 -23 -57 -137 -55 -171 0 -9 -3 -15 -7 -13 -4 3 -7 -5 -6 -17 1
-12 -4 -33 -12 -47 -7 -14 -13 -31 -13 -37 0 -7 -4 -13 -10 -13 -5 0 -10 7
-10 15 0 8 -4 15 -9 15 -5 0 -17 26 -26 58 -9 31 -28 83 -41 115 -13 32 -24
64 -24 70 0 13 -61 58 -76 56 -5 -1 -19 -4 -31 -6z"/>
<path d="M593 1243 c-10 -3 -9 -8 2 -20 20 -20 22 -421 3 -442 -10 -11 -10
-12 -1 -7 9 5 11 2 7 -8 -3 -9 -10 -13 -15 -10 -15 9 -5 -20 11 -33 20 -16 71
-16 92 1 15 11 9 12 -37 8 -39 -3 -55 -1 -55 8 0 7 7 10 15 6 13 -5 15 21 15
197 0 111 3 226 6 255 6 47 5 52 -12 51 -10 0 -25 -3 -31 -6z"/>
<path d="M1042 998 l3 -253 28 -3 27 -3 0 255 0 256 -30 0 -30 0 2 -252z"/>
<path d="M1160 1135 l0 -115 61 0 c33 0 69 4 79 10 41 22 50 141 14 198 -13
19 -23 22 -84 22 l-70 0 0 -115z m127 72 c12 -19 20 -87 12 -93 -5 -3 -7 -9
-4 -14 11 -17 -14 -47 -42 -53 -48 -9 -53 -2 -53 88 0 72 3 84 18 87 25 5 61
-3 69 -15z"/>
<path d="M1160 877 l0 -133 68 4 c37 2 73 9 79 14 38 31 40 174 4 220 -15 18
-30 22 -85 25 l-66 2 0 -132z m121 87 c15 -18 19 -66 7 -82 -8 -9 -7 -11 6 -6
15 6 17 2 10 -31 -12 -66 -72 -103 -98 -62 -14 23 -20 164 -8 183 16 25 61 24
83 -2z"/>
</g>
</svg>
